<svg xmlns="http://www.w3.org/2000/svg" xmlns:xlink="http://www.w3.org/1999/xlink" width="2000" zoomAndPan="magnify" viewBox="0 0 1500 1499.999933" height="2000" preserveAspectRatio="xMidYMid meet" version="1.0"><defs><g/><clipPath id="93dce5e939"><path d="M 251 732.089844 L 1228 732.089844 L 1228 853.589844 L 251 853.589844 Z M 251 732.089844 " clip-rule="nonzero"/></clipPath></defs><g clip-path="url(#93dce5e939)"><path fill="#baa297" d="M 420.976562 848.671875 C 458.089844 851.984375 495.097656 849.488281 531.855469 842.863281 C 571.863281 835.652344 610.613281 824.054688 649.066406 811.078125 C 702.578125 793.023438 755.3125 772.597656 809.976562 758.089844 C 817.378906 756.117188 824.867188 754.566406 832.308594 752.804688 C 832.6875 753.246094 833.042969 753.664062 833.421875 754.105469 C 795.636719 763.332031 758.605469 775.011719 721.996094 788.09375 C 670.183594 806.609375 618.601562 825.921875 565.007812 838.859375 C 527.789062 847.855469 490.109375 853.621094 451.589844 853.265625 C 422.570312 852.992188 393.84375 850.683594 365.554688 844.121094 C 333.746094 836.761719 303.113281 826.445312 276.125 807.238281 C 268.324219 801.683594 261.132812 795.558594 255.453125 787.800781 C 253.0625 784.53125 251.867188 780.820312 251.46875 776.835938 C 251.214844 774.214844 252.242188 772.328125 255.074219 771.761719 C 257.757812 771.214844 260.066406 772.265625 260.695312 774.675781 C 265.308594 792.898438 280.550781 801.285156 294.453125 810.363281 C 316.15625 824.539062 340.4375 832.570312 365.429688 839.320312 C 383.777344 844.269531 402.355469 847.015625 420.976562 848.671875 Z M 960.574219 734.75 C 960.320312 734.816406 960.089844 734.855469 959.839844 734.917969 C 960.027344 734.917969 960.257812 734.878906 960.574219 734.75 Z M 1011.796875 732.949219 C 994.394531 732.128906 976.925781 733.242188 959.480469 733.515625 C 959.839844 733.933594 960.214844 734.332031 960.574219 734.75 C 961.726562 734.960938 962.878906 735.421875 964.011719 735.339844 C 993.953125 733.242188 1023.855469 734.855469 1053.652344 737.5625 C 1077.660156 739.742188 1101.542969 743.707031 1124.753906 750.476562 C 1129.746094 751.925781 1134.859375 753.371094 1139.851562 755.050781 C 1151.699219 759.054688 1162.894531 764.546875 1174.449219 769.222656 C 1174.992188 768.929688 1175.519531 768.617188 1176.0625 768.320312 C 1145.03125 752.597656 1111.816406 744.292969 1077.722656 738.695312 C 1070.613281 737.519531 1063.441406 737.769531 1056.375 736.449219 C 1041.675781 733.703125 1026.683594 733.621094 1011.839844 732.925781 Z M 1182.835938 774.214844 C 1195.394531 782.328125 1207.933594 790.507812 1220.496094 798.601562 C 1222.445312 799.859375 1224.6875 801.324219 1226.679688 799 C 1228.757812 796.566406 1226.242188 794.890625 1224.730469 794.09375 C 1210.347656 786.5 1195.855469 779.140625 1181.390625 771.699219 C 1180.863281 771.992188 1180.339844 772.285156 1179.816406 772.578125 C 1180.824219 773.101562 1181.890625 773.5625 1182.855469 774.191406 Z M 893.664062 741.945312 C 876.824219 742.238281 860.574219 746.199219 844.261719 749.640625 C 844.199219 750.101562 844.136719 750.582031 844.074219 751.042969 C 860.597656 748.003906 877.140625 744.964844 893.664062 741.945312 Z M 903.121094 738.839844 C 903.496094 739.324219 903.894531 739.785156 904.273438 740.265625 C 916.75 739.027344 929.226562 737.8125 941.699219 736.574219 C 941.300781 736.15625 940.882812 735.738281 940.484375 735.316406 C 927.902344 735.171875 915.59375 737.730469 903.121094 738.839844 Z M 940.484375 735.316406 C 940.652344 735.253906 940.820312 735.214844 940.988281 735.171875 C 940.839844 735.191406 940.671875 735.253906 940.484375 735.316406 Z M 959.480469 733.492188 C 953.339844 734.3125 947.027344 733.367188 940.988281 735.171875 C 941.890625 735.003906 941.929688 735.675781 941.699219 736.574219 C 947.71875 735.820312 953.882812 736.304688 959.839844 734.898438 C 959.1875 734.898438 959.25 734.269531 959.480469 733.492188 Z M 833.421875 754.085938 C 836.984375 753.078125 840.527344 752.070312 844.09375 751.066406 C 843.757812 750.707031 843.652344 750.375 843.820312 750.078125 C 843.988281 749.785156 844.136719 749.640625 844.261719 749.660156 C 840.277344 750.707031 836.292969 751.757812 832.308594 752.785156 C 833.757812 752.300781 833.734375 753.058594 833.421875 754.085938 Z M 903.121094 738.863281 C 901.359375 739.972656 898.546875 738 896.324219 742.300781 C 899.679688 740.601562 902.132812 742.300781 904.273438 740.289062 C 902.679688 740.789062 902.742188 739.953125 903.121094 738.863281 Z M 1174.425781 769.246094 C 1175.308594 771.824219 1178.390625 770.878906 1179.796875 772.621094 C 1179.859375 771.507812 1180.066406 770.648438 1181.367188 771.738281 C 1180.402344 769.328125 1177.59375 769.851562 1176.042969 768.34375 C 1175.980469 769.496094 1175.707031 770.292969 1174.425781 769.246094 Z M 1174.425781 769.246094 " fill-opacity="1" fill-rule="nonzero"/></g><g fill="#84746d" fill-opacity="1"><g transform="translate(740.074002, 778.929849)"><g><path d="M 247.78125 -107.6875 C 248.425781 -106.15625 248.148438 -104.898438 246.953125 -103.921875 C 245.753906 -102.941406 244.828125 -102.015625 244.171875 -101.140625 C 230.421875 -87.390625 216.453125 -73.695312 202.265625 -60.0625 C 188.085938 -46.425781 173.800781 -32.84375 159.40625 -19.3125 C 151.976562 -12.332031 144.28125 -5.40625 136.3125 1.46875 C 128.351562 8.34375 120.007812 14.945312 111.28125 21.28125 C 107.570312 23.894531 103.265625 26.726562 98.359375 29.78125 C 93.453125 32.84375 88.101562 35.300781 82.3125 37.15625 C 76.53125 39.007812 70.640625 39.878906 64.640625 39.765625 C 58.640625 39.660156 52.695312 37.753906 46.8125 34.046875 C 39.164062 29.460938 33.160156 22.859375 28.796875 14.234375 C 24.429688 5.617188 21.597656 -4.253906 20.296875 -15.390625 C 18.984375 -26.515625 19.085938 -38.1875 20.609375 -50.40625 C 22.140625 -62.625 24.707031 -74.675781 28.3125 -86.5625 C 31.914062 -98.457031 36.28125 -110.078125 41.40625 -121.421875 C 46.53125 -132.773438 52.039062 -143.253906 57.9375 -152.859375 C 67.539062 -168.347656 77.90625 -183.238281 89.03125 -197.53125 C 100.15625 -211.820312 113.25 -224.316406 128.3125 -235.015625 C 133.101562 -238.285156 138.554688 -241.664062 144.671875 -245.15625 C 150.785156 -248.644531 157.222656 -250.609375 163.984375 -251.046875 C 170.960938 -251.484375 176.578125 -250.226562 180.828125 -247.28125 C 185.085938 -244.332031 188.203125 -240.351562 190.171875 -235.34375 C 192.347656 -230.101562 193.378906 -224.15625 193.265625 -217.5 C 193.160156 -210.84375 192.675781 -204.351562 191.8125 -198.03125 C 191.15625 -193.007812 190.222656 -187.5 189.015625 -181.5 C 187.816406 -175.5 186.5625 -169.550781 185.25 -163.65625 C 183.945312 -157.757812 182.691406 -152.25 181.484375 -147.125 C 180.285156 -142 179.253906 -138.019531 178.390625 -135.1875 C 178.171875 -134.09375 178.003906 -133.109375 177.890625 -132.234375 C 177.785156 -131.359375 177.1875 -130.703125 176.09375 -130.265625 C 174.78125 -129.828125 173.742188 -130.046875 172.984375 -130.921875 C 172.222656 -131.796875 171.515625 -132.78125 170.859375 -133.875 C 170.421875 -135.832031 170.742188 -137.082031 171.828125 -137.625 C 172.921875 -138.175781 173.46875 -139.328125 173.46875 -141.078125 C 175.21875 -148.492188 176.910156 -155.960938 178.546875 -163.484375 C 180.179688 -171.015625 181.875 -178.707031 183.625 -186.5625 C 184.5 -191.800781 185.367188 -197.75 186.234375 -204.40625 C 187.109375 -211.0625 187.269531 -217.390625 186.71875 -223.390625 C 186.175781 -229.390625 184.597656 -234.515625 181.984375 -238.765625 C 179.367188 -243.023438 175.003906 -245.375 168.890625 -245.8125 C 164.960938 -246.25 161.304688 -245.863281 157.921875 -244.65625 C 154.546875 -243.457031 151.328125 -242.207031 148.265625 -240.90625 C 138.671875 -236.320312 128.632812 -229.28125 118.15625 -219.78125 C 107.6875 -210.289062 97.539062 -199.160156 87.71875 -186.390625 C 77.894531 -173.628906 68.78125 -159.664062 60.375 -144.5 C 51.976562 -129.34375 44.890625 -113.960938 39.109375 -98.359375 C 33.328125 -82.753906 29.234375 -67.257812 26.828125 -51.875 C 24.429688 -36.488281 24.4375 -22.253906 26.84375 -9.171875 C 28.363281 -1.085938 30.707031 6.0625 33.875 12.28125 C 37.039062 18.5 41.023438 23.40625 45.828125 27 C 50.628906 30.601562 56.082031 32.835938 62.1875 33.703125 C 68.300781 34.578125 75.175781 33.707031 82.8125 31.09375 C 88.914062 28.914062 94.585938 26.1875 99.828125 22.90625 C 105.066406 19.632812 110.085938 16.144531 114.890625 12.4375 C 119.691406 8.726562 124.378906 4.851562 128.953125 0.8125 C 133.535156 -3.21875 138.117188 -7.085938 142.703125 -10.796875 C 151.210938 -18.429688 159.832031 -26.34375 168.5625 -34.53125 C 177.289062 -42.71875 185.910156 -50.847656 194.421875 -58.921875 C 202.929688 -66.992188 211.113281 -74.847656 218.96875 -82.484375 C 226.820312 -90.117188 234.132812 -97.101562 240.90625 -103.4375 C 241.988281 -104.300781 243.019531 -105.5 244 -107.03125 C 244.988281 -108.5625 246.25 -108.78125 247.78125 -107.6875 Z M 247.78125 -107.6875 "/></g></g></g><g fill="#84746d" fill-opacity="1"><g transform="translate(980.650101, 778.929849)"><g><path d="M 21.609375 -106.046875 C 22.035156 -106.046875 22.519531 -106.207031 23.0625 -106.53125 C 23.613281 -106.863281 24.328125 -106.921875 25.203125 -106.703125 C 26.078125 -105.828125 26.625 -104.734375 26.84375 -103.421875 C 27.0625 -102.117188 27.113281 -100.703125 27 -99.171875 C 26.894531 -97.648438 26.734375 -96.015625 26.515625 -94.265625 C 26.296875 -92.515625 26.1875 -90.878906 26.1875 -89.359375 C 26.1875 -85.648438 27.273438 -83.140625 29.453125 -81.828125 C 34.472656 -81.390625 38.945312 -82.097656 42.875 -83.953125 C 46.800781 -85.804688 50.507812 -87.71875 54 -89.6875 C 57.28125 -91.644531 59.957031 -93.390625 62.03125 -94.921875 C 64.101562 -96.453125 65.679688 -97.707031 66.765625 -98.6875 C 67.859375 -99.664062 68.734375 -100.265625 69.390625 -100.484375 C 70.046875 -100.703125 70.703125 -100.375 71.359375 -99.5 C 71.359375 -98.40625 70.972656 -97.53125 70.203125 -96.875 C 69.441406 -96.226562 68.734375 -95.578125 68.078125 -94.921875 C 67.421875 -94.484375 66.710938 -93.9375 65.953125 -93.28125 C 65.191406 -92.625 64.375 -92.078125 63.5 -91.640625 C 62.1875 -90.554688 60.710938 -89.519531 59.078125 -88.53125 C 57.441406 -87.550781 55.859375 -86.515625 54.328125 -85.421875 C 52.367188 -84.554688 50.351562 -83.628906 48.28125 -82.640625 C 46.207031 -81.660156 44.078125 -80.734375 41.890625 -79.859375 C 39.710938 -78.992188 37.421875 -78.394531 35.015625 -78.0625 C 32.617188 -77.738281 30.003906 -77.796875 27.171875 -78.234375 C 23.890625 -79.753906 22.140625 -82.96875 21.921875 -87.875 C 21.710938 -92.789062 22.039062 -97.320312 22.90625 -101.46875 C 21.820312 -100.8125 20.675781 -99.773438 19.46875 -98.359375 C 18.269531 -96.941406 17.125 -95.578125 16.03125 -94.265625 C 14.289062 -92.953125 12.65625 -91.421875 11.125 -89.671875 C 9.601562 -87.929688 7.910156 -86.1875 6.046875 -84.4375 C 4.191406 -82.695312 2.28125 -81.171875 0.3125 -79.859375 C -1.644531 -78.554688 -3.820312 -77.90625 -6.21875 -77.90625 C -7.09375 -78.34375 -8.179688 -79.210938 -9.484375 -80.515625 C -10.140625 -85.097656 -9.429688 -89.296875 -7.359375 -93.109375 C -5.285156 -96.929688 -3.050781 -100.585938 -0.65625 -104.078125 C 1.53125 -106.921875 3.820312 -109.597656 6.21875 -112.109375 C 8.613281 -114.617188 11.34375 -116.414062 14.40625 -117.5 C 16.582031 -118.375 18.765625 -118.375 20.953125 -117.5 C 21.390625 -117.0625 21.710938 -116.625 21.921875 -116.1875 C 22.140625 -115.757812 22.46875 -115.328125 22.90625 -114.890625 C 23.34375 -113.140625 23.34375 -111.554688 22.90625 -110.140625 C 22.46875 -108.722656 22.035156 -107.359375 21.609375 -106.046875 Z M -2.953125 -85.09375 C -0.546875 -86.1875 1.523438 -87.492188 3.265625 -89.015625 C 5.015625 -90.546875 6.765625 -92.1875 8.515625 -93.9375 C 8.078125 -94.8125 7.859375 -95.578125 7.859375 -96.234375 C 9.160156 -98.628906 10.628906 -100.914062 12.265625 -103.09375 C 13.910156 -105.28125 14.953125 -107.898438 15.390625 -110.953125 C 11.453125 -107.460938 7.847656 -103.695312 4.578125 -99.65625 C 1.304688 -95.625 -1.203125 -90.769531 -2.953125 -85.09375 Z M -2.953125 -85.09375 "/></g></g></g><g fill="#84746d" fill-opacity="1"><g transform="translate(1049.713472, 778.929849)"><g><path d="M -14.078125 -49.421875 C -14.515625 -49.421875 -14.625 -49.3125 -14.40625 -49.09375 C -14.1875 -48.875 -14.078125 -48.984375 -14.078125 -49.421875 C -11.015625 -55.316406 -7.679688 -60.988281 -4.078125 -66.4375 C -0.484375 -71.894531 3.492188 -77.023438 7.859375 -81.828125 C 9.597656 -84.222656 11.613281 -86.507812 13.90625 -88.6875 C 16.195312 -90.875 18.65625 -93.0625 21.28125 -95.25 C 23.894531 -97.207031 26.726562 -99.164062 29.78125 -101.125 C 32.84375 -103.09375 36.007812 -104.296875 39.28125 -104.734375 C 42.550781 -104.953125 44.953125 -104.300781 46.484375 -102.78125 C 48.222656 -100.8125 48.816406 -98.191406 48.265625 -94.921875 C 47.722656 -91.648438 46.910156 -89.140625 45.828125 -87.390625 C 50.847656 -89.796875 56.300781 -92.25 62.1875 -94.75 C 68.082031 -97.257812 74.191406 -99.28125 80.515625 -100.8125 C 81.171875 -101.03125 82.097656 -101.25 83.296875 -101.46875 C 84.492188 -101.6875 85.203125 -101.25 85.421875 -100.15625 C 85.640625 -99.5 85.3125 -98.953125 84.4375 -98.515625 C 83.570312 -98.078125 82.484375 -97.640625 81.171875 -97.203125 C 79.859375 -96.773438 78.601562 -96.453125 77.40625 -96.234375 C 76.207031 -96.015625 75.28125 -95.796875 74.625 -95.578125 C 68.519531 -93.609375 62.847656 -91.421875 57.609375 -89.015625 C 52.367188 -86.617188 47.347656 -84.003906 42.546875 -81.171875 C 35.566406 -70.703125 27.929688 -61.535156 19.640625 -53.671875 C 17.890625 -52.148438 15.539062 -50.078125 12.59375 -47.453125 C 9.65625 -44.835938 6.65625 -42.492188 3.59375 -40.421875 C 0.539062 -38.347656 -2.398438 -36.875 -5.234375 -36 C -8.066406 -35.125 -10.140625 -35.5625 -11.453125 -37.3125 C -12.328125 -38.625 -12.378906 -40.257812 -11.609375 -42.21875 C -10.847656 -44.1875 -10.035156 -45.828125 -9.171875 -47.140625 C -8.515625 -48.222656 -7.691406 -49.3125 -6.703125 -50.40625 C -5.722656 -51.5 -4.796875 -52.484375 -3.921875 -53.359375 C 2.179688 -59.460938 8.890625 -64.804688 16.203125 -69.390625 C 23.515625 -73.972656 30.660156 -78.445312 37.640625 -82.8125 C 38.734375 -85.207031 40.148438 -87.710938 41.890625 -90.328125 C 43.640625 -92.953125 44.078125 -96.117188 43.203125 -99.828125 C 38.835938 -100.265625 35.128906 -99.5 32.078125 -97.53125 C 29.023438 -95.570312 26.296875 -93.609375 23.890625 -91.640625 C 21.273438 -89.679688 18.820312 -87.5 16.53125 -85.09375 C 14.238281 -82.695312 12 -80.300781 9.8125 -77.90625 C -1.53125 -64.375 -10.640625 -48.929688 -17.515625 -31.578125 C -24.390625 -14.234375 -29.570312 5.238281 -33.0625 26.84375 C -33.28125 27.925781 -33.441406 29.34375 -33.546875 31.09375 C -33.660156 32.84375 -33.878906 34.585938 -34.203125 36.328125 C -34.523438 38.078125 -35.015625 39.601562 -35.671875 40.90625 C -36.328125 42.21875 -37.09375 42.875 -37.96875 42.875 C -39.0625 42.875 -39.878906 42.546875 -40.421875 41.890625 C -40.960938 41.234375 -41.285156 40.359375 -41.390625 39.265625 C -41.503906 38.179688 -41.453125 37.039062 -41.234375 35.84375 C -41.015625 34.644531 -40.90625 33.609375 -40.90625 32.734375 C -39.382812 20.296875 -36.984375 6.988281 -33.703125 -7.1875 C -30.429688 -21.375 -26.285156 -35.671875 -21.265625 -50.078125 C -16.253906 -64.484375 -10.53125 -78.503906 -4.09375 -92.140625 C 2.34375 -105.773438 9.378906 -118.15625 17.015625 -129.28125 C 17.671875 -129.9375 18.488281 -130.8125 19.46875 -131.90625 C 20.457031 -133 21.550781 -133.925781 22.75 -134.6875 C 23.945312 -135.445312 25.09375 -135.828125 26.1875 -135.828125 C 27.28125 -135.828125 28.257812 -135.066406 29.125 -133.546875 C 29.125 -130.921875 28.578125 -128.898438 27.484375 -127.484375 C 26.398438 -126.066406 25.421875 -124.484375 24.546875 -122.734375 C 22.585938 -119.460938 19.695312 -115.585938 15.875 -111.109375 C 12.050781 -106.640625 8.285156 -101.351562 4.578125 -95.25 C 3.492188 -93.71875 2.625 -91.96875 1.96875 -90 C 1.3125 -88.039062 0.4375 -86.191406 -0.65625 -84.453125 C -5.457031 -73.316406 -9.929688 -61.859375 -14.078125 -50.078125 Z M 31.421875 -74.953125 C 23.566406 -70.148438 16.253906 -65.023438 9.484375 -59.578125 C 5.992188 -56.953125 2.613281 -54.113281 -0.65625 -51.0625 C -3.925781 -48.007812 -6.4375 -44.300781 -8.1875 -39.9375 C -3.382812 -41.238281 0.8125 -43.363281 4.40625 -46.3125 C 8.007812 -49.257812 11.34375 -52.257812 14.40625 -55.3125 C 17.457031 -58.363281 20.507812 -61.472656 23.5625 -64.640625 C 26.625 -67.804688 29.570312 -71.242188 32.40625 -74.953125 C 32.1875 -75.171875 32.078125 -75.28125 32.078125 -75.28125 C 32.078125 -75.0625 31.859375 -74.953125 31.421875 -74.953125 Z M 31.421875 -74.953125 "/></g></g></g><g fill="#84746d" fill-opacity="1"><g transform="translate(1132.196711, 778.929849)"><g><path d="M -3.59375 -81.171875 C 1.195312 -84.222656 5.394531 -87.660156 9 -91.484375 C 12.601562 -95.304688 16.476562 -99.070312 20.625 -102.78125 C 22.144531 -103.863281 23.453125 -105.0625 24.546875 -106.375 C 25.640625 -107.6875 27.382812 -108.5625 29.78125 -109 C 31.53125 -107.25 31.96875 -105.171875 31.09375 -102.765625 C 30.21875 -100.367188 29.453125 -98.082031 28.796875 -95.90625 C 28.148438 -93.5 27.5 -91.09375 26.84375 -88.6875 C 26.1875 -86.289062 26.40625 -83.894531 27.5 -81.5 C 31.644531 -81.5 35.296875 -82.425781 38.453125 -84.28125 C 41.617188 -86.132812 44.726562 -87.9375 47.78125 -89.6875 C 50.84375 -91.425781 53.953125 -93.171875 57.109375 -94.921875 C 60.273438 -96.671875 63.382812 -98.523438 66.4375 -100.484375 C 67.3125 -100.921875 68.296875 -101.410156 69.390625 -101.953125 C 70.484375 -102.503906 71.46875 -102.234375 72.34375 -101.140625 C 72.34375 -99.828125 71.796875 -98.953125 70.703125 -98.515625 C 69.609375 -98.078125 68.625 -97.644531 67.75 -97.21875 C 63.382812 -94.8125 59.070312 -92.242188 54.8125 -89.515625 C 50.5625 -86.785156 46.523438 -84.382812 42.703125 -82.3125 C 38.890625 -80.238281 35.398438 -78.765625 32.234375 -77.890625 C 29.078125 -77.023438 26.515625 -77.351562 24.546875 -78.875 C 23.453125 -80.84375 22.847656 -82.863281 22.734375 -84.9375 C 22.628906 -87.007812 22.847656 -89.132812 23.390625 -91.3125 C 23.941406 -93.5 24.597656 -95.628906 25.359375 -97.703125 C 26.128906 -99.773438 26.734375 -101.6875 27.171875 -103.4375 C 24.328125 -101.46875 21.648438 -99.117188 19.140625 -96.390625 C 16.640625 -93.660156 14.078125 -91.097656 11.453125 -88.703125 C 8.835938 -85.648438 6.21875 -83.140625 3.59375 -81.171875 C 2.289062 -80.078125 0.984375 -78.875 -0.328125 -77.5625 C -1.640625 -76.257812 -3.710938 -75.609375 -6.546875 -75.609375 C -6.546875 -75.828125 -6.765625 -75.9375 -7.203125 -75.9375 C -8.515625 -76.375 -9.273438 -77.460938 -9.484375 -79.203125 C -9.703125 -80.953125 -9.597656 -82.703125 -9.171875 -84.453125 C -7.640625 -89.460938 -5.726562 -93.929688 -3.4375 -97.859375 C -1.144531 -101.796875 1.414062 -105.507812 4.25 -109 C 4.25 -110.519531 4.738281 -111.828125 5.71875 -112.921875 C 6.707031 -114.015625 7.800781 -114.671875 9 -114.890625 C 10.195312 -115.109375 11.285156 -114.890625 12.265625 -114.234375 C 13.253906 -113.578125 13.75 -112.265625 13.75 -110.296875 C 13.3125 -108.992188 12.707031 -107.957031 11.9375 -107.1875 C 11.175781 -106.425781 10.359375 -105.609375 9.484375 -104.734375 C 7.085938 -101.679688 4.90625 -98.460938 2.9375 -95.078125 C 0.976562 -91.703125 -0.875 -88.269531 -2.625 -84.78125 C -3.050781 -83.46875 -3.375 -82.59375 -3.59375 -82.15625 Z M -3.59375 -81.171875 "/></g></g></g><g fill="#84746d" fill-opacity="1"><g transform="translate(1202.242054, 778.929849)"><g><path d="M 21.609375 -106.046875 C 22.035156 -106.046875 22.519531 -106.207031 23.0625 -106.53125 C 23.613281 -106.863281 24.328125 -106.921875 25.203125 -106.703125 C 26.078125 -105.828125 26.625 -104.734375 26.84375 -103.421875 C 27.0625 -102.117188 27.113281 -100.703125 27 -99.171875 C 26.894531 -97.648438 26.734375 -96.015625 26.515625 -94.265625 C 26.296875 -92.515625 26.1875 -90.878906 26.1875 -89.359375 C 26.1875 -85.648438 27.273438 -83.140625 29.453125 -81.828125 C 34.472656 -81.390625 38.945312 -82.097656 42.875 -83.953125 C 46.800781 -85.804688 50.507812 -87.71875 54 -89.6875 C 57.28125 -91.644531 59.957031 -93.390625 62.03125 -94.921875 C 64.101562 -96.453125 65.679688 -97.707031 66.765625 -98.6875 C 67.859375 -99.664062 68.734375 -100.265625 69.390625 -100.484375 C 70.046875 -100.703125 70.703125 -100.375 71.359375 -99.5 C 71.359375 -98.40625 70.972656 -97.53125 70.203125 -96.875 C 69.441406 -96.226562 68.734375 -95.578125 68.078125 -94.921875 C 67.421875 -94.484375 66.710938 -93.9375 65.953125 -93.28125 C 65.191406 -92.625 64.375 -92.078125 63.5 -91.640625 C 62.1875 -90.554688 60.710938 -89.519531 59.078125 -88.53125 C 57.441406 -87.550781 55.859375 -86.515625 54.328125 -85.421875 C 52.367188 -84.554688 50.351562 -83.628906 48.28125 -82.640625 C 46.207031 -81.660156 44.078125 -80.734375 41.890625 -79.859375 C 39.710938 -78.992188 37.421875 -78.394531 35.015625 -78.0625 C 32.617188 -77.738281 30.003906 -77.796875 27.171875 -78.234375 C 23.890625 -79.753906 22.140625 -82.96875 21.921875 -87.875 C 21.710938 -92.789062 22.039062 -97.320312 22.90625 -101.46875 C 21.820312 -100.8125 20.675781 -99.773438 19.46875 -98.359375 C 18.269531 -96.941406 17.125 -95.578125 16.03125 -94.265625 C 14.289062 -92.953125 12.65625 -91.421875 11.125 -89.671875 C 9.601562 -87.929688 7.910156 -86.1875 6.046875 -84.4375 C 4.191406 -82.695312 2.28125 -81.171875 0.3125 -79.859375 C -1.644531 -78.554688 -3.820312 -77.90625 -6.21875 -77.90625 C -7.09375 -78.34375 -8.179688 -79.210938 -9.484375 -80.515625 C -10.140625 -85.097656 -9.429688 -89.296875 -7.359375 -93.109375 C -5.285156 -96.929688 -3.050781 -100.585938 -0.65625 -104.078125 C 1.53125 -106.921875 3.820312 -109.597656 6.21875 -112.109375 C 8.613281 -114.617188 11.34375 -116.414062 14.40625 -117.5 C 16.582031 -118.375 18.765625 -118.375 20.953125 -117.5 C 21.390625 -117.0625 21.710938 -116.625 21.921875 -116.1875 C 22.140625 -115.757812 22.46875 -115.328125 22.90625 -114.890625 C 23.34375 -113.140625 23.34375 -111.554688 22.90625 -110.140625 C 22.46875 -108.722656 22.035156 -107.359375 21.609375 -106.046875 Z M -2.953125 -85.09375 C -0.546875 -86.1875 1.523438 -87.492188 3.265625 -89.015625 C 5.015625 -90.546875 6.765625 -92.1875 8.515625 -93.9375 C 8.078125 -94.8125 7.859375 -95.578125 7.859375 -96.234375 C 9.160156 -98.628906 10.628906 -100.914062 12.265625 -103.09375 C 13.910156 -105.28125 14.953125 -107.898438 15.390625 -110.953125 C 11.453125 -107.460938 7.847656 -103.695312 4.578125 -99.65625 C 1.304688 -95.625 -1.203125 -90.769531 -2.953125 -85.09375 Z M -2.953125 -85.09375 "/></g></g></g><g fill="#84746d" fill-opacity="1"><g transform="translate(1271.305403, 778.929849)"><g><path d="M -5.234375 -75.28125 C -0.210938 -79.644531 4.582031 -84.609375 9.15625 -90.171875 C 13.738281 -95.734375 18.539062 -100.804688 23.5625 -105.390625 C 25.53125 -106.703125 27.332031 -108.175781 28.96875 -109.8125 C 30.601562 -111.445312 32.945312 -112.375 36 -112.59375 C 38.1875 -111.5 39.222656 -109.425781 39.109375 -106.375 C 39.003906 -103.320312 38.625 -99.992188 37.96875 -96.390625 C 37.3125 -92.796875 36.875 -89.140625 36.65625 -85.421875 C 36.4375 -81.710938 37.421875 -78.769531 39.609375 -76.59375 C 44.835938 -76.8125 49.304688 -78.117188 53.015625 -80.515625 C 56.734375 -82.921875 60.445312 -85.210938 64.15625 -87.390625 C 68.738281 -90.441406 72.226562 -93.003906 74.625 -95.078125 C 77.03125 -97.148438 78.882812 -98.734375 80.1875 -99.828125 C 81.5 -100.921875 82.425781 -101.578125 82.96875 -101.796875 C 83.519531 -102.015625 84.125 -101.90625 84.78125 -101.46875 C 85.207031 -99.9375 84.875 -98.898438 83.78125 -98.359375 C 82.695312 -97.816406 81.9375 -97.109375 81.5 -96.234375 C 78.882812 -94.265625 76.375 -92.296875 73.96875 -90.328125 C 71.570312 -88.367188 68.953125 -86.519531 66.109375 -84.78125 C 62.835938 -82.375 59.289062 -80.078125 55.46875 -77.890625 C 51.65625 -75.710938 47.457031 -73.96875 42.875 -72.65625 L 39.28125 -72.65625 C 38.84375 -72.875 38.347656 -73.09375 37.796875 -73.3125 C 37.253906 -73.53125 36.765625 -73.75 36.328125 -73.96875 C 34.585938 -75.9375 33.5 -78.28125 33.0625 -81 C 32.625 -83.726562 32.515625 -86.617188 32.734375 -89.671875 C 32.953125 -92.734375 33.332031 -95.898438 33.875 -99.171875 C 34.414062 -102.441406 34.6875 -105.390625 34.6875 -108.015625 C 30.332031 -105.609375 26.460938 -102.382812 23.078125 -98.34375 C 19.691406 -94.3125 16.363281 -90.441406 13.09375 -86.734375 C 10.6875 -84.117188 8.335938 -81.226562 6.046875 -78.0625 C 3.765625 -74.894531 1.535156 -72.164062 -0.640625 -69.875 C -2.828125 -67.582031 -4.957031 -66.109375 -7.03125 -65.453125 C -9.101562 -64.804688 -10.90625 -65.679688 -12.4375 -68.078125 C -12.65625 -74.191406 -11.398438 -80.140625 -8.671875 -85.921875 C -5.941406 -91.703125 -2.613281 -98.410156 1.3125 -106.046875 C 1.75 -106.921875 2.347656 -108.175781 3.109375 -109.8125 C 3.867188 -111.445312 4.738281 -112.753906 5.71875 -113.734375 C 6.707031 -114.722656 7.691406 -115.269531 8.671875 -115.375 C 9.648438 -115.488281 10.6875 -114.5625 11.78125 -112.59375 C 11.34375 -110.195312 10.632812 -108.125 9.65625 -106.375 C 8.675781 -104.632812 7.640625 -102.671875 6.546875 -100.484375 C 5.015625 -95.679688 3.378906 -91.644531 1.640625 -88.375 C 1.640625 -87.5 1.3125 -87.113281 0.65625 -87.21875 C 0 -87.332031 -0.546875 -87.171875 -0.984375 -86.734375 C -1.640625 -84.773438 -2.347656 -82.867188 -3.109375 -81.015625 C -3.867188 -79.160156 -4.578125 -77.25 -5.234375 -75.28125 Z M -5.234375 -75.28125 "/></g></g></g><g fill="#84746d" fill-opacity="1"><g transform="translate(1353.788641, 778.929849)"><g><path d="M 12.765625 -96.5625 C 19.742188 -94.15625 26.941406 -93.769531 34.359375 -95.40625 C 41.785156 -97.039062 48.222656 -98.953125 53.671875 -101.140625 C 54.328125 -101.578125 55.144531 -101.957031 56.125 -102.28125 C 57.113281 -102.613281 57.828125 -102.234375 58.265625 -101.140625 C 58.046875 -99.390625 57.171875 -98.351562 55.640625 -98.03125 C 54.117188 -97.707031 52.8125 -97.21875 51.71875 -96.5625 C 46.695312 -94.15625 40.53125 -92.351562 33.21875 -91.15625 C 25.90625 -89.957031 18.976562 -90.226562 12.4375 -91.96875 C 11.5625 -89.132812 10.632812 -86.460938 9.65625 -83.953125 C 8.675781 -81.441406 7.3125 -79.097656 5.5625 -76.921875 C 4.25 -74.953125 2.609375 -73.039062 0.640625 -71.1875 C -1.316406 -69.332031 -4.039062 -68.40625 -7.53125 -68.40625 L -9.484375 -69.390625 C -10.578125 -70.046875 -11.453125 -71.351562 -12.109375 -73.3125 C -12.109375 -77.457031 -11.34375 -81.332031 -9.8125 -84.9375 C -8.289062 -88.539062 -6.65625 -91.976562 -4.90625 -95.25 C -3.164062 -98.300781 -1.367188 -101.300781 0.484375 -104.25 C 2.335938 -107.195312 4.46875 -109.757812 6.875 -111.9375 C 7.53125 -112.59375 8.726562 -113.359375 10.46875 -114.234375 C 11.78125 -114.453125 12.707031 -114.234375 13.25 -113.578125 C 13.800781 -112.921875 14.296875 -112.15625 14.734375 -111.28125 C 14.515625 -109.539062 14.078125 -108.015625 13.421875 -106.703125 C 12.765625 -105.390625 12.109375 -104.082031 11.453125 -102.78125 C 12.328125 -101.25 12.765625 -99.175781 12.765625 -96.5625 Z M -5.890625 -74.953125 C -2.398438 -75.828125 0.707031 -78.445312 3.4375 -82.8125 C 6.164062 -87.175781 7.421875 -91.210938 7.203125 -94.921875 C 6.765625 -94.921875 6.4375 -94.535156 6.21875 -93.765625 C 6 -93.003906 5.453125 -92.625 4.578125 -92.625 C 3.054688 -92.625 2.296875 -93.5 2.296875 -95.25 C 0.546875 -92.195312 -1.144531 -89.140625 -2.78125 -86.078125 C -4.414062 -83.023438 -5.453125 -79.316406 -5.890625 -74.953125 Z M -5.890625 -74.953125 "/></g></g></g><g fill="#84746d" fill-opacity="1"><g transform="translate(303.597667, 752.059787)"><g><path d="M 44.71875 -91.96875 C 41.414062 -91.96875 38.535156 -91.5 36.078125 -90.5625 C 33.628906 -89.519531 31.554688 -88.148438 29.859375 -86.453125 C 28.160156 -84.753906 26.882812 -82.773438 26.03125 -80.515625 C 25.1875 -78.253906 24.765625 -75.847656 24.765625 -73.296875 C 24.765625 -70.847656 25.328125 -68.773438 26.453125 -67.078125 C 27.585938 -65.378906 29.144531 -63.820312 31.125 -62.40625 C 33.101562 -60.988281 35.460938 -59.617188 38.203125 -58.296875 C 40.847656 -56.972656 43.726562 -55.554688 46.84375 -54.046875 C 47.3125 -53.859375 47.78125 -53.671875 48.25 -53.484375 C 48.71875 -53.203125 49.191406 -52.96875 49.671875 -52.78125 C 49.765625 -52.78125 49.90625 -52.6875 50.09375 -52.5 C 50.28125 -52.5 50.421875 -52.453125 50.515625 -52.359375 L 50.796875 -52.359375 L 51.21875 -51.9375 L 51.640625 -51.9375 C 51.835938 -51.9375 51.984375 -51.882812 52.078125 -51.78125 L 52.921875 -51.78125 L 53.34375 -51.359375 L 53.765625 -51.359375 L 55.46875 -50.515625 C 55.84375 -50.328125 56.21875 -50.140625 56.59375 -49.953125 C 56.882812 -49.765625 57.171875 -49.578125 57.453125 -49.390625 L 58.296875 -48.953125 C 60.648438 -47.546875 62.914062 -46.039062 65.09375 -44.4375 C 67.257812 -42.832031 69.144531 -41.085938 70.75 -39.203125 C 72.351562 -37.210938 73.628906 -35.085938 74.578125 -32.828125 C 75.515625 -30.472656 75.984375 -27.878906 75.984375 -25.046875 C 75.984375 -21.648438 75.179688 -18.441406 73.578125 -15.421875 C 71.878906 -12.398438 69.613281 -9.757812 66.78125 -7.5 C 63.957031 -5.238281 60.707031 -3.445312 57.03125 -2.125 C 53.25 -0.800781 49.238281 -0.140625 45 -0.140625 L 41.75 -0.140625 C 38.632812 -0.140625 35.707031 -0.566406 32.96875 -1.421875 C 30.226562 -2.171875 27.726562 -3.113281 25.46875 -4.25 C 23.863281 -5 22.210938 -5.140625 20.515625 -4.671875 C 18.816406 -4.203125 17.640625 -3.257812 16.984375 -1.84375 L 16.5625 -0.984375 C 16.363281 -0.515625 15.984375 -0.28125 15.421875 -0.28125 C 14.578125 -0.28125 14.15625 -0.613281 14.15625 -1.28125 L 14.15625 -29 C 14.15625 -29.664062 14.578125 -30 15.421875 -30 C 15.984375 -30 16.363281 -29.765625 16.5625 -29.296875 C 18.351562 -24.859375 20.472656 -20.941406 22.921875 -17.546875 C 24.992188 -14.617188 27.632812 -11.976562 30.84375 -9.625 C 33.957031 -7.164062 37.59375 -5.9375 41.75 -5.9375 L 45.421875 -5.9375 C 48.628906 -5.9375 51.503906 -6.503906 54.046875 -7.640625 C 56.503906 -8.679688 58.582031 -10.097656 60.28125 -11.890625 C 61.976562 -13.585938 63.25 -15.566406 64.09375 -17.828125 C 64.945312 -20.085938 65.375 -22.351562 65.375 -24.625 C 65.375 -26.695312 64.804688 -28.582031 63.671875 -30.28125 C 62.441406 -31.882812 61.125 -33.253906 59.71875 -34.390625 C 58.207031 -35.515625 56.835938 -36.410156 55.609375 -37.078125 C 54.378906 -37.640625 53.71875 -37.96875 53.625 -38.0625 L 53.203125 -38.0625 C 52.160156 -38.71875 51.125 -39.378906 50.09375 -40.046875 C 48.957031 -40.609375 47.773438 -41.222656 46.546875 -41.890625 C 45.515625 -42.359375 44.476562 -42.875 43.4375 -43.4375 C 42.40625 -44.007812 41.320312 -44.578125 40.1875 -45.140625 C 39.71875 -45.328125 39.054688 -45.703125 38.203125 -46.265625 C 37.265625 -46.742188 36.273438 -47.265625 35.234375 -47.828125 C 34.097656 -48.390625 32.867188 -49.050781 31.546875 -49.8125 C 29.097656 -51.226562 26.835938 -52.738281 24.765625 -54.34375 C 22.597656 -55.9375 20.710938 -57.726562 19.109375 -59.71875 C 17.503906 -61.601562 16.226562 -63.722656 15.28125 -66.078125 C 14.332031 -68.335938 13.859375 -70.882812 13.859375 -73.71875 C 13.859375 -77.113281 14.707031 -80.320312 16.40625 -83.34375 C 18.007812 -86.363281 20.226562 -89.003906 23.0625 -91.265625 C 25.894531 -93.523438 29.195312 -95.316406 32.96875 -96.640625 C 36.644531 -97.960938 40.609375 -98.625 44.859375 -98.625 L 48.109375 -98.625 C 51.222656 -98.625 54.148438 -98.25 56.890625 -97.5 C 59.617188 -96.644531 62.113281 -95.648438 64.375 -94.515625 C 65.976562 -93.765625 67.628906 -93.625 69.328125 -94.09375 C 71.023438 -94.570312 72.207031 -95.515625 72.875 -96.921875 L 73.296875 -97.78125 C 73.484375 -98.25 73.859375 -98.484375 74.421875 -98.484375 C 75.273438 -98.484375 75.703125 -98.15625 75.703125 -97.5 L 75.703125 -69.765625 C 75.703125 -69.097656 75.273438 -68.765625 74.421875 -68.765625 C 73.859375 -68.765625 73.484375 -69 73.296875 -69.46875 C 71.503906 -73.8125 69.378906 -77.679688 66.921875 -81.078125 C 65.890625 -82.492188 64.710938 -83.910156 63.390625 -85.328125 C 62.066406 -86.742188 60.601562 -88.015625 59 -89.140625 C 57.394531 -90.273438 55.695312 -91.171875 53.90625 -91.828125 C 52.113281 -92.492188 50.179688 -92.828125 48.109375 -92.828125 L 44.4375 -92.828125 Z M 44.71875 -91.96875 "/></g></g></g><g fill="#84746d" fill-opacity="1"><g transform="translate(393.303741, 752.059787)"><g><path d="M 56.59375 -99.046875 C 63.382812 -99.046875 69.800781 -97.773438 75.84375 -95.234375 C 81.882812 -92.585938 87.164062 -89.046875 91.6875 -84.609375 C 96.125 -80.085938 99.660156 -74.804688 102.296875 -68.765625 C 104.847656 -62.734375 106.125 -56.320312 106.125 -49.53125 C 106.125 -42.738281 104.847656 -36.320312 102.296875 -30.28125 C 99.660156 -24.238281 96.125 -19.003906 91.6875 -14.578125 C 87.164062 -10.046875 81.882812 -6.507812 75.84375 -3.96875 C 69.800781 -1.320312 63.382812 0 56.59375 0 C 49.800781 0 43.390625 -1.320312 37.359375 -3.96875 C 31.316406 -6.507812 26.082031 -10.046875 21.65625 -14.578125 C 17.125 -19.003906 13.582031 -24.238281 11.03125 -30.28125 C 8.394531 -36.320312 7.078125 -42.738281 7.078125 -49.53125 C 7.078125 -56.320312 8.394531 -62.734375 11.03125 -68.765625 C 13.582031 -74.804688 17.125 -80.085938 21.65625 -84.609375 C 26.082031 -89.046875 31.316406 -92.585938 37.359375 -95.234375 C 43.390625 -97.773438 49.800781 -99.046875 56.59375 -99.046875 Z M 56.59375 -6.078125 C 62.820312 -6.078125 68.34375 -7.351562 73.15625 -9.90625 C 77.96875 -12.351562 82.023438 -15.65625 85.328125 -19.8125 C 88.628906 -23.863281 91.175781 -28.484375 92.96875 -33.671875 C 94.664062 -38.859375 95.515625 -44.144531 95.515625 -49.53125 C 95.515625 -54.90625 94.757812 -60.1875 93.25 -65.375 C 91.644531 -70.5625 89.285156 -75.226562 86.171875 -79.375 C 82.960938 -83.4375 78.90625 -86.738281 74 -89.28125 C 69.09375 -91.738281 63.289062 -92.96875 56.59375 -92.96875 C 50.1875 -92.96875 44.578125 -91.738281 39.765625 -89.28125 C 34.859375 -86.738281 30.800781 -83.4375 27.59375 -79.375 C 24.289062 -75.226562 21.835938 -70.5625 20.234375 -65.375 C 18.535156 -60.1875 17.6875 -54.90625 17.6875 -49.53125 C 17.6875 -44.144531 18.582031 -38.859375 20.375 -33.671875 C 22.164062 -28.484375 24.710938 -23.863281 28.015625 -19.8125 C 31.316406 -15.65625 35.375 -12.351562 40.1875 -9.90625 C 45 -7.351562 50.46875 -6.078125 56.59375 -6.078125 Z M 56.59375 -6.078125 "/></g></g></g><g fill="#84746d" fill-opacity="1"><g transform="translate(506.497529, 752.059787)"><g><path d="M 71.03125 -98.90625 C 72.351562 -98.90625 73.015625 -98.242188 73.015625 -96.921875 L 73.015625 -84.1875 C 73.015625 -83.53125 72.6875 -83.203125 72.03125 -83.203125 C 71.550781 -83.203125 71.21875 -83.4375 71.03125 -83.90625 L 69.765625 -87.15625 C 69.097656 -88.757812 68.054688 -90.082031 66.640625 -91.125 C 65.234375 -92.070312 63.628906 -92.59375 61.828125 -92.6875 L 28.859375 -92.6875 C 27.546875 -92.6875 26.890625 -92.023438 26.890625 -90.703125 L 26.890625 -66.78125 C 26.890625 -65.46875 27.546875 -64.8125 28.859375 -64.8125 L 52.359375 -64.8125 C 54.242188 -64.8125 55.941406 -65.328125 57.453125 -66.359375 C 58.867188 -67.398438 59.90625 -68.769531 60.5625 -70.46875 L 61.828125 -73.71875 C 62.023438 -74.1875 62.359375 -74.421875 62.828125 -74.421875 C 63.484375 -74.421875 63.8125 -74.09375 63.8125 -73.4375 L 63.8125 -50.09375 C 63.8125 -49.425781 63.484375 -49.09375 62.828125 -49.09375 C 62.359375 -49.09375 62.023438 -49.332031 61.828125 -49.8125 L 60.5625 -53.0625 C 59.90625 -54.757812 58.867188 -56.128906 57.453125 -57.171875 C 55.941406 -58.203125 54.242188 -58.71875 52.359375 -58.71875 L 28.859375 -58.71875 C 27.546875 -58.71875 26.890625 -58.054688 26.890625 -56.734375 L 26.890625 -9.765625 C 26.890625 -8.347656 27.265625 -7.070312 28.015625 -5.9375 C 28.773438 -4.71875 29.8125 -3.867188 31.125 -3.390625 L 36.078125 -1.5625 C 36.554688 -1.375 36.796875 -1.039062 36.796875 -0.5625 C 36.796875 0.09375 36.460938 0.421875 35.796875 0.421875 L 7.640625 0.421875 C 7.359375 0.328125 7.171875 0.140625 7.078125 -0.140625 L 7.078125 -0.984375 C 7.265625 -1.367188 7.453125 -1.609375 7.640625 -1.703125 L 12.03125 -3.390625 C 13.351562 -3.867188 14.390625 -4.71875 15.140625 -5.9375 C 15.890625 -7.070312 16.265625 -8.347656 16.265625 -9.765625 L 16.265625 -89 C 16.265625 -90.414062 15.890625 -91.738281 15.140625 -92.96875 C 14.390625 -94.09375 13.351562 -94.894531 12.03125 -95.375 L 7.640625 -97.0625 C 7.171875 -97.257812 6.9375 -97.59375 6.9375 -98.0625 C 6.9375 -98.71875 7.265625 -99.046875 7.921875 -99.046875 L 71.03125 -99.046875 Z M 71.03125 -98.90625 "/></g></g></g><g fill="#84746d" fill-opacity="1"><g transform="translate(586.582133, 752.059787)"><g><path d="M 36.21875 -1.84375 C 36.695312 -1.65625 36.9375 -1.320312 36.9375 -0.84375 C 36.9375 -0.1875 36.601562 0.140625 35.9375 0.140625 L 8.203125 0.140625 C 7.546875 0.140625 7.21875 -0.1875 7.21875 -0.84375 C 7.21875 -1.320312 7.453125 -1.65625 7.921875 -1.84375 L 12.59375 -3.671875 C 13.914062 -4.148438 14.953125 -5 15.703125 -6.21875 C 16.460938 -7.351562 16.84375 -8.628906 16.84375 -10.046875 L 16.84375 -89.140625 C 16.84375 -90.554688 16.460938 -91.878906 15.703125 -93.109375 C 14.953125 -94.242188 13.914062 -95.046875 12.59375 -95.515625 L 7.921875 -97.359375 C 7.453125 -97.546875 7.21875 -97.875 7.21875 -98.34375 C 7.21875 -99 7.546875 -99.328125 8.203125 -99.328125 L 35.9375 -99.328125 C 36.601562 -99.328125 36.9375 -99 36.9375 -98.34375 C 36.9375 -97.875 36.695312 -97.546875 36.21875 -97.359375 L 31.546875 -95.515625 C 30.234375 -95.046875 29.195312 -94.242188 28.4375 -93.109375 C 27.6875 -91.878906 27.3125 -90.554688 27.3125 -89.140625 L 27.3125 -10.046875 C 27.3125 -8.628906 27.6875 -7.351562 28.4375 -6.21875 C 29.195312 -5 30.234375 -4.148438 31.546875 -3.671875 Z M 13.578125 -108.8125 C 13.296875 -109.09375 13.15625 -109.472656 13.15625 -109.953125 C 13.15625 -110.328125 13.296875 -110.65625 13.578125 -110.9375 L 25.328125 -123.53125 C 25.984375 -124.375 26.738281 -124.375 27.59375 -123.53125 L 30 -121.125 C 30.84375 -120.269531 30.84375 -119.46875 30 -118.71875 L 16.5625 -107.96875 C 16.269531 -107.6875 15.9375 -107.546875 15.5625 -107.546875 C 15.09375 -107.546875 14.71875 -107.6875 14.4375 -107.96875 Z M 13.578125 -108.8125 "/></g></g></g><g fill="#84746d" fill-opacity="1"><g transform="translate(630.444723, 752.059787)"><g><path d="M 112.921875 -1.703125 C 113.390625 -1.515625 113.625 -1.179688 113.625 -0.703125 C 113.625 -0.046875 113.296875 0.28125 112.640625 0.28125 L 83.90625 0.28125 C 83.25 0.28125 82.921875 -0.046875 82.921875 -0.703125 C 82.921875 -1.179688 83.15625 -1.515625 83.625 -1.703125 C 85.507812 -2.171875 86.878906 -3.300781 87.734375 -5.09375 C 88.578125 -6.882812 88.625 -8.722656 87.875 -10.609375 L 80.796875 -28.15625 C 80.328125 -29.382812 79.429688 -30 78.109375 -30 L 38.0625 -30 C 36.738281 -30 35.84375 -29.382812 35.375 -28.15625 L 28.15625 -10.328125 C 27.40625 -8.535156 27.5 -6.789062 28.4375 -5.09375 C 29.289062 -3.394531 30.660156 -2.3125 32.546875 -1.84375 C 33.015625 -1.65625 33.25 -1.320312 33.25 -0.84375 C 33.25 -0.1875 32.921875 0.140625 32.265625 0.140625 L 8.34375 0.140625 C 7.6875 0.140625 7.359375 -0.1875 7.359375 -0.84375 C 7.359375 -1.320312 7.59375 -1.65625 8.0625 -1.84375 L 11.3125 -3.109375 C 12.164062 -3.390625 13.113281 -3.816406 14.15625 -4.390625 C 15.1875 -4.953125 16.222656 -5.613281 17.265625 -6.375 C 18.203125 -7.03125 19.097656 -7.78125 19.953125 -8.625 C 20.796875 -9.476562 21.410156 -10.328125 21.796875 -11.171875 L 53.484375 -89.5625 C 54.054688 -90.882812 54.101562 -92.160156 53.625 -93.390625 C 53.0625 -94.617188 52.117188 -95.46875 50.796875 -95.9375 L 48.109375 -96.921875 C 47.640625 -97.109375 47.40625 -97.441406 47.40625 -97.921875 C 47.40625 -98.578125 47.734375 -98.90625 48.390625 -98.90625 L 62.265625 -98.90625 C 62.921875 -98.90625 63.390625 -98.625 63.671875 -98.0625 L 65.796875 -92.828125 L 98.90625 -11.3125 C 99.28125 -10.46875 99.894531 -9.617188 100.75 -8.765625 C 101.59375 -7.921875 102.535156 -7.125 103.578125 -6.375 C 104.523438 -5.613281 105.5625 -4.953125 106.6875 -4.390625 C 107.726562 -3.816406 108.671875 -3.390625 109.515625 -3.109375 L 112.78125 -1.84375 Z M 76.828125 -36.078125 C 77.304688 -36.078125 77.453125 -36.269531 77.265625 -36.65625 L 58.4375 -83.34375 C 58.34375 -83.53125 58.203125 -83.625 58.015625 -83.625 C 57.828125 -83.625 57.6875 -83.53125 57.59375 -83.34375 L 38.765625 -36.65625 C 38.578125 -36.269531 38.722656 -36.078125 39.203125 -36.078125 Z M 76.828125 -36.078125 "/></g></g></g><g fill="#84746d" fill-opacity="1"><g transform="translate(931.780729, 836.6539)"><g><path d="M 26.9375 -37.515625 C 27.4375 -37.515625 27.6875 -37.265625 27.6875 -36.765625 L 27.6875 -31.9375 C 27.6875 -31.6875 27.5625 -31.5625 27.3125 -31.5625 C 27.132812 -31.5625 27.007812 -31.648438 26.9375 -31.828125 L 26.453125 -33.0625 C 26.203125 -33.664062 25.8125 -34.164062 25.28125 -34.5625 C 24.738281 -34.914062 24.128906 -35.113281 23.453125 -35.15625 L 10.953125 -35.15625 C 10.453125 -35.15625 10.203125 -34.90625 10.203125 -34.40625 L 10.203125 -25.328125 C 10.203125 -24.828125 10.453125 -24.578125 10.953125 -24.578125 L 19.859375 -24.578125 C 20.578125 -24.578125 21.222656 -24.773438 21.796875 -25.171875 C 22.328125 -25.566406 22.71875 -26.085938 22.96875 -26.734375 L 23.453125 -27.96875 C 23.523438 -28.144531 23.648438 -28.234375 23.828125 -28.234375 C 24.078125 -28.234375 24.203125 -28.109375 24.203125 -27.859375 L 24.203125 -19 C 24.203125 -18.75 24.078125 -18.625 23.828125 -18.625 C 23.648438 -18.625 23.523438 -18.710938 23.453125 -18.890625 L 22.96875 -20.125 C 22.71875 -20.769531 22.328125 -21.289062 21.796875 -21.6875 C 21.222656 -22.082031 20.578125 -22.28125 19.859375 -22.28125 L 10.953125 -22.28125 C 10.453125 -22.28125 10.203125 -22.023438 10.203125 -21.515625 L 10.203125 -3.703125 C 10.203125 -3.160156 10.34375 -2.675781 10.625 -2.25 C 10.914062 -1.789062 11.3125 -1.46875 11.8125 -1.28125 L 13.6875 -0.59375 C 13.863281 -0.519531 13.953125 -0.394531 13.953125 -0.21875 C 13.953125 0.03125 13.828125 0.15625 13.578125 0.15625 L 2.890625 0.15625 C 2.785156 0.125 2.71875 0.0546875 2.6875 -0.046875 L 2.6875 -0.375 C 2.757812 -0.519531 2.828125 -0.609375 2.890625 -0.640625 L 4.5625 -1.28125 C 5.0625 -1.46875 5.457031 -1.789062 5.75 -2.25 C 6.03125 -2.675781 6.171875 -3.160156 6.171875 -3.703125 L 6.171875 -33.765625 C 6.171875 -34.296875 6.03125 -34.796875 5.75 -35.265625 C 5.457031 -35.691406 5.0625 -35.992188 4.5625 -36.171875 L 2.890625 -36.8125 C 2.710938 -36.882812 2.625 -37.007812 2.625 -37.1875 C 2.625 -37.4375 2.75 -37.5625 3 -37.5625 L 26.9375 -37.5625 Z M 26.9375 -37.515625 "/></g></g></g><g fill="#84746d" fill-opacity="1"><g transform="translate(962.152339, 836.6539)"><g><path d="M 21.46875 -37.5625 C 24.039062 -37.5625 26.472656 -37.082031 28.765625 -36.125 C 31.054688 -35.125 33.0625 -33.78125 34.78125 -32.09375 C 36.457031 -30.375 37.800781 -28.367188 38.8125 -26.078125 C 39.769531 -23.796875 40.25 -21.363281 40.25 -18.78125 C 40.25 -16.207031 39.769531 -13.773438 38.8125 -11.484375 C 37.800781 -9.191406 36.457031 -7.207031 34.78125 -5.53125 C 33.0625 -3.8125 31.054688 -2.46875 28.765625 -1.5 C 26.472656 -0.5 24.039062 0 21.46875 0 C 18.894531 0 16.460938 -0.5 14.171875 -1.5 C 11.878906 -2.46875 9.894531 -3.8125 8.21875 -5.53125 C 6.5 -7.207031 5.15625 -9.191406 4.1875 -11.484375 C 3.1875 -13.773438 2.6875 -16.207031 2.6875 -18.78125 C 2.6875 -21.363281 3.1875 -23.796875 4.1875 -26.078125 C 5.15625 -28.367188 6.5 -30.375 8.21875 -32.09375 C 9.894531 -33.78125 11.878906 -35.125 14.171875 -36.125 C 16.460938 -37.082031 18.894531 -37.5625 21.46875 -37.5625 Z M 21.46875 -2.3125 C 23.832031 -2.3125 25.925781 -2.789062 27.75 -3.75 C 29.570312 -4.6875 31.109375 -5.941406 32.359375 -7.515625 C 33.617188 -9.054688 34.585938 -10.8125 35.265625 -12.78125 C 35.910156 -14.738281 36.234375 -16.738281 36.234375 -18.78125 C 36.234375 -20.820312 35.945312 -22.828125 35.375 -24.796875 C 34.757812 -26.765625 33.863281 -28.535156 32.6875 -30.109375 C 31.46875 -31.648438 29.929688 -32.898438 28.078125 -33.859375 C 26.210938 -34.796875 24.007812 -35.265625 21.46875 -35.265625 C 19.03125 -35.265625 16.898438 -34.796875 15.078125 -33.859375 C 13.222656 -32.898438 11.6875 -31.648438 10.46875 -30.109375 C 9.21875 -28.535156 8.285156 -26.765625 7.671875 -24.796875 C 7.023438 -22.828125 6.703125 -20.820312 6.703125 -18.78125 C 6.703125 -16.738281 7.046875 -14.738281 7.734375 -12.78125 C 8.410156 -10.8125 9.375 -9.054688 10.625 -7.515625 C 11.875 -5.941406 13.414062 -4.6875 15.25 -3.75 C 17.070312 -2.789062 19.144531 -2.3125 21.46875 -2.3125 Z M 21.46875 -2.3125 "/></g></g></g><g fill="#84746d" fill-opacity="1"><g transform="translate(1005.080417, 836.6539)"><g><path d="M 27.421875 -37.5625 C 27.671875 -37.5625 27.796875 -37.4375 27.796875 -37.1875 L 27.796875 -31.984375 C 27.796875 -31.734375 27.671875 -31.609375 27.421875 -31.609375 C 27.242188 -31.609375 27.117188 -31.695312 27.046875 -31.875 L 26.5625 -33.109375 C 26.3125 -33.753906 25.921875 -34.273438 25.390625 -34.671875 C 24.816406 -35.066406 24.171875 -35.265625 23.453125 -35.265625 L 17.984375 -35.265625 C 17.484375 -35.265625 17.234375 -35.015625 17.234375 -34.515625 L 17.234375 -3.75 C 17.234375 -3.21875 17.375 -2.738281 17.65625 -2.3125 C 17.945312 -1.84375 18.34375 -1.519531 18.84375 -1.34375 L 20.609375 -0.640625 C 20.785156 -0.566406 20.875 -0.441406 20.875 -0.265625 C 20.875 -0.015625 20.75 0.109375 20.5 0.109375 L 9.984375 0.109375 C 9.734375 0.109375 9.609375 -0.015625 9.609375 -0.265625 C 9.609375 -0.441406 9.695312 -0.566406 9.875 -0.640625 L 11.640625 -1.34375 C 12.140625 -1.519531 12.535156 -1.84375 12.828125 -2.3125 C 13.109375 -2.738281 13.25 -3.21875 13.25 -3.75 L 13.25 -34.515625 C 13.25 -35.015625 13 -35.265625 12.5 -35.265625 L 7.03125 -35.265625 C 6.3125 -35.265625 5.6875 -35.066406 5.15625 -34.671875 C 4.582031 -34.273438 4.171875 -33.753906 3.921875 -33.109375 L 3.4375 -31.875 C 3.363281 -31.695312 3.238281 -31.609375 3.0625 -31.609375 C 2.8125 -31.609375 2.6875 -31.734375 2.6875 -31.984375 L 2.6875 -37.1875 C 2.6875 -37.4375 2.8125 -37.5625 3.0625 -37.5625 Z M 27.421875 -37.5625 "/></g></g></g><g fill="#84746d" fill-opacity="1"><g transform="translate(1035.505688, 836.6539)"><g><path d="M 21.46875 -37.5625 C 24.039062 -37.5625 26.472656 -37.082031 28.765625 -36.125 C 31.054688 -35.125 33.0625 -33.78125 34.78125 -32.09375 C 36.457031 -30.375 37.800781 -28.367188 38.8125 -26.078125 C 39.769531 -23.796875 40.25 -21.363281 40.25 -18.78125 C 40.25 -16.207031 39.769531 -13.773438 38.8125 -11.484375 C 37.800781 -9.191406 36.457031 -7.207031 34.78125 -5.53125 C 33.0625 -3.8125 31.054688 -2.46875 28.765625 -1.5 C 26.472656 -0.5 24.039062 0 21.46875 0 C 18.894531 0 16.460938 -0.5 14.171875 -1.5 C 11.878906 -2.46875 9.894531 -3.8125 8.21875 -5.53125 C 6.5 -7.207031 5.15625 -9.191406 4.1875 -11.484375 C 3.1875 -13.773438 2.6875 -16.207031 2.6875 -18.78125 C 2.6875 -21.363281 3.1875 -23.796875 4.1875 -26.078125 C 5.15625 -28.367188 6.5 -30.375 8.21875 -32.09375 C 9.894531 -33.78125 11.878906 -35.125 14.171875 -36.125 C 16.460938 -37.082031 18.894531 -37.5625 21.46875 -37.5625 Z M 21.46875 -2.3125 C 23.832031 -2.3125 25.925781 -2.789062 27.75 -3.75 C 29.570312 -4.6875 31.109375 -5.941406 32.359375 -7.515625 C 33.617188 -9.054688 34.585938 -10.8125 35.265625 -12.78125 C 35.910156 -14.738281 36.234375 -16.738281 36.234375 -18.78125 C 36.234375 -20.820312 35.945312 -22.828125 35.375 -24.796875 C 34.757812 -26.765625 33.863281 -28.535156 32.6875 -30.109375 C 31.46875 -31.648438 29.929688 -32.898438 28.078125 -33.859375 C 26.210938 -34.796875 24.007812 -35.265625 21.46875 -35.265625 C 19.03125 -35.265625 16.898438 -34.796875 15.078125 -33.859375 C 13.222656 -32.898438 11.6875 -31.648438 10.46875 -30.109375 C 9.21875 -28.535156 8.285156 -26.765625 7.671875 -24.796875 C 7.023438 -22.828125 6.703125 -20.820312 6.703125 -18.78125 C 6.703125 -16.738281 7.046875 -14.738281 7.734375 -12.78125 C 8.410156 -10.8125 9.375 -9.054688 10.625 -7.515625 C 11.875 -5.941406 13.414062 -4.6875 15.25 -3.75 C 17.070312 -2.789062 19.144531 -2.3125 21.46875 -2.3125 Z M 18.296875 -41.28125 C 18.191406 -41.382812 18.140625 -41.523438 18.140625 -41.703125 C 18.140625 -41.847656 18.191406 -41.972656 18.296875 -42.078125 L 22.75 -46.859375 C 23 -47.179688 23.285156 -47.179688 23.609375 -46.859375 L 24.53125 -45.9375 C 24.851562 -45.613281 24.851562 -45.3125 24.53125 -45.03125 L 19.421875 -40.953125 C 19.316406 -40.847656 19.191406 -40.796875 19.046875 -40.796875 C 18.867188 -40.796875 18.726562 -40.847656 18.625 -40.953125 Z M 18.296875 -41.28125 "/></g></g></g><g fill="#84746d" fill-opacity="1"><g transform="translate(1078.433766, 836.6539)"><g><path d="M 35.09375 -14.96875 C 35.351562 -14.96875 35.484375 -14.84375 35.484375 -14.59375 C 35.484375 -14.414062 35.390625 -14.289062 35.203125 -14.21875 C 34.773438 -14.039062 34.4375 -13.773438 34.1875 -13.421875 C 33.90625 -13.054688 33.765625 -12.644531 33.765625 -12.1875 L 33.765625 -6.875 C 33.765625 -6.15625 33.546875 -5.5625 33.109375 -5.09375 C 33.046875 -5.019531 32.976562 -4.953125 32.90625 -4.890625 C 32.832031 -4.773438 32.757812 -4.664062 32.6875 -4.5625 C 32.613281 -4.414062 32.5625 -4.328125 32.53125 -4.296875 C 32.207031 -3.929688 31.828125 -3.570312 31.390625 -3.21875 C 30.566406 -2.5 29.460938 -1.820312 28.078125 -1.1875 C 26.640625 -0.5 24.796875 -0.0664062 22.546875 0.109375 C 22.253906 0.140625 21.96875 0.15625 21.6875 0.15625 C 21.363281 0.195312 21.039062 0.21875 20.71875 0.21875 C 17.75 0.21875 15.15625 -0.316406 12.9375 -1.390625 C 10.675781 -2.460938 8.796875 -3.894531 7.296875 -5.6875 C 5.796875 -7.4375 4.671875 -9.441406 3.921875 -11.703125 C 3.128906 -13.953125 2.734375 -16.242188 2.734375 -18.578125 C 2.734375 -21.046875 3.128906 -23.367188 3.921875 -25.546875 C 4.671875 -27.734375 5.78125 -29.679688 7.25 -31.390625 C 8.894531 -33.359375 10.863281 -34.847656 13.15625 -35.859375 C 15.40625 -36.859375 17.925781 -37.359375 20.71875 -37.359375 C 22.863281 -37.359375 24.671875 -37.125 26.140625 -36.65625 C 27.609375 -36.1875 28.820312 -35.648438 29.78125 -35.046875 C 30.21875 -34.765625 30.6875 -34.710938 31.1875 -34.890625 C 31.644531 -35.023438 31.96875 -35.328125 32.15625 -35.796875 L 32.578125 -36.875 C 32.648438 -37.050781 32.773438 -37.140625 32.953125 -37.140625 C 33.203125 -37.140625 33.328125 -37.015625 33.328125 -36.765625 L 33.328125 -26.25 C 33.328125 -26 33.203125 -25.875 32.953125 -25.875 C 32.773438 -25.875 32.648438 -25.960938 32.578125 -26.140625 L 32.3125 -26.828125 C 31.769531 -28.191406 31.035156 -29.445312 30.109375 -30.59375 C 29.179688 -31.738281 28.085938 -32.6875 26.828125 -33.4375 C 26.003906 -33.9375 25.09375 -34.347656 24.09375 -34.671875 C 23.09375 -34.953125 21.96875 -35.09375 20.71875 -35.09375 C 19.644531 -35.09375 18.609375 -34.914062 17.609375 -34.5625 C 16.597656 -34.164062 15.664062 -33.679688 14.8125 -33.109375 C 13.914062 -32.503906 13.09375 -31.84375 12.34375 -31.125 C 11.59375 -30.375 10.894531 -29.625 10.25 -28.875 C 9.101562 -27.507812 8.242188 -25.953125 7.671875 -24.203125 C 7.066406 -22.453125 6.765625 -20.59375 6.765625 -18.625 C 6.765625 -16.832031 7.050781 -14.972656 7.625 -13.046875 C 8.15625 -11.109375 8.992188 -9.335938 10.140625 -7.734375 C 11.285156 -6.117188 12.734375 -4.789062 14.484375 -3.75 C 16.242188 -2.71875 18.320312 -2.203125 20.71875 -2.203125 C 21.863281 -2.203125 22.898438 -2.304688 23.828125 -2.515625 C 24.753906 -2.703125 25.613281 -2.9375 26.40625 -3.21875 C 26.945312 -3.46875 27.375 -3.703125 27.6875 -3.921875 C 28.332031 -4.316406 28.835938 -4.851562 29.203125 -5.53125 C 29.554688 -6.175781 29.734375 -6.875 29.734375 -7.625 L 29.734375 -10.46875 C 29.734375 -11 29.59375 -11.5 29.3125 -11.96875 C 29.019531 -12.394531 28.625 -12.695312 28.125 -12.875 L 24.359375 -14.328125 C 24.179688 -14.398438 24.09375 -14.523438 24.09375 -14.703125 C 24.09375 -14.953125 24.21875 -15.078125 24.46875 -15.078125 L 35 -15.078125 Z M 35.09375 -14.96875 "/></g></g></g><g fill="#84746d" fill-opacity="1"><g transform="translate(1114.332368, 836.6539)"><g><path d="M 33.859375 -0.859375 C 34.046875 -0.785156 34.140625 -0.660156 34.140625 -0.484375 C 34.140625 -0.234375 34.015625 -0.109375 33.765625 -0.109375 L 30.109375 -0.109375 C 28.859375 -0.109375 27.695312 -0.429688 26.625 -1.078125 C 25.550781 -1.722656 24.726562 -2.613281 24.15625 -3.75 L 17.015625 -17.8125 C 16.910156 -18.101562 16.695312 -18.25 16.375 -18.25 L 11 -18.25 C 10.5 -18.25 10.25 -18 10.25 -17.5 L 10.25 -3.859375 C 10.25 -3.328125 10.394531 -2.847656 10.6875 -2.421875 C 10.96875 -1.953125 11.359375 -1.628906 11.859375 -1.453125 L 13.625 -0.75 C 13.8125 -0.675781 13.90625 -0.550781 13.90625 -0.375 C 13.90625 -0.125 13.78125 0 13.53125 0 L 3 0 C 2.75 0 2.625 -0.125 2.625 -0.375 C 2.625 -0.550781 2.710938 -0.675781 2.890625 -0.75 L 4.671875 -1.453125 C 5.171875 -1.628906 5.5625 -1.953125 5.84375 -2.421875 C 6.132812 -2.847656 6.28125 -3.328125 6.28125 -3.859375 L 6.28125 -33.28125 C 6.28125 -33.988281 6.082031 -34.628906 5.6875 -35.203125 C 5.289062 -35.742188 4.769531 -36.140625 4.125 -36.390625 L 2.890625 -36.875 C 2.710938 -36.945312 2.625 -37.070312 2.625 -37.25 C 2.625 -37.5 2.75 -37.625 3 -37.625 L 20.390625 -37.625 C 22.109375 -37.625 23.628906 -37.351562 24.953125 -36.8125 C 26.242188 -36.238281 27.335938 -35.507812 28.234375 -34.625 C 29.085938 -33.6875 29.75 -32.644531 30.21875 -31.5 C 30.644531 -30.320312 30.859375 -29.125 30.859375 -27.90625 C 30.859375 -26.90625 30.660156 -25.867188 30.265625 -24.796875 C 29.878906 -23.722656 29.289062 -22.738281 28.5 -21.84375 C 27.707031 -20.914062 26.738281 -20.128906 25.59375 -19.484375 C 24.457031 -18.804688 23.117188 -18.394531 21.578125 -18.25 C 21.398438 -18.25 21.363281 -18.160156 21.46875 -17.984375 L 27.640625 -5.796875 C 28.753906 -3.648438 30.4375 -2.128906 32.6875 -1.234375 L 32.734375 -1.234375 L 33.96875 -0.75 Z M 20.34375 -20.65625 C 22.59375 -20.65625 24.238281 -21.320312 25.28125 -22.65625 C 26.28125 -23.976562 26.78125 -25.765625 26.78125 -28.015625 C 26.78125 -29.015625 26.65625 -29.960938 26.40625 -30.859375 C 26.15625 -31.753906 25.757812 -32.539062 25.21875 -33.21875 C 24.6875 -33.863281 24.023438 -34.382812 23.234375 -34.78125 C 22.410156 -35.175781 21.445312 -35.375 20.34375 -35.375 L 10.953125 -35.375 C 10.453125 -35.375 10.203125 -35.125 10.203125 -34.625 L 10.203125 -21.359375 C 10.203125 -20.859375 10.453125 -20.609375 10.953125 -20.609375 Z M 20.34375 -20.65625 "/></g></g></g><g fill="#84746d" fill-opacity="1"><g transform="translate(1151.196863, 836.6539)"><g><path d="M 42.828125 -0.640625 C 43.003906 -0.566406 43.09375 -0.441406 43.09375 -0.265625 C 43.09375 -0.015625 42.96875 0.109375 42.71875 0.109375 L 31.828125 0.109375 C 31.578125 0.109375 31.453125 -0.015625 31.453125 -0.265625 C 31.453125 -0.441406 31.539062 -0.566406 31.71875 -0.640625 C 32.4375 -0.816406 32.957031 -1.25 33.28125 -1.9375 C 33.601562 -2.613281 33.617188 -3.3125 33.328125 -4.03125 L 30.640625 -10.6875 C 30.460938 -11.144531 30.125 -11.375 29.625 -11.375 L 14.4375 -11.375 C 13.9375 -11.375 13.597656 -11.144531 13.421875 -10.6875 L 10.6875 -3.921875 C 10.394531 -3.234375 10.425781 -2.570312 10.78125 -1.9375 C 11.101562 -1.289062 11.625 -0.878906 12.34375 -0.703125 C 12.519531 -0.628906 12.609375 -0.503906 12.609375 -0.328125 C 12.609375 -0.078125 12.484375 0.046875 12.234375 0.046875 L 3.171875 0.046875 C 2.921875 0.046875 2.796875 -0.078125 2.796875 -0.328125 C 2.796875 -0.503906 2.882812 -0.628906 3.0625 -0.703125 L 4.296875 -1.1875 C 4.617188 -1.289062 4.972656 -1.445312 5.359375 -1.65625 C 5.753906 -1.875 6.148438 -2.128906 6.546875 -2.421875 C 6.898438 -2.671875 7.238281 -2.957031 7.5625 -3.28125 C 7.882812 -3.59375 8.117188 -3.910156 8.265625 -4.234375 L 20.28125 -33.96875 C 20.5 -34.46875 20.519531 -34.953125 20.34375 -35.421875 C 20.125 -35.890625 19.765625 -36.210938 19.265625 -36.390625 L 18.25 -36.765625 C 18.070312 -36.835938 17.984375 -36.960938 17.984375 -37.140625 C 17.984375 -37.390625 18.109375 -37.515625 18.359375 -37.515625 L 23.609375 -37.515625 C 23.859375 -37.515625 24.039062 -37.40625 24.15625 -37.1875 L 24.953125 -35.203125 L 37.515625 -4.296875 C 37.660156 -3.972656 37.894531 -3.648438 38.21875 -3.328125 C 38.539062 -3.003906 38.894531 -2.703125 39.28125 -2.421875 C 39.644531 -2.128906 40.039062 -1.875 40.46875 -1.65625 C 40.863281 -1.445312 41.222656 -1.289062 41.546875 -1.1875 L 42.78125 -0.703125 Z M 29.140625 -13.6875 C 29.316406 -13.6875 29.375 -13.757812 29.3125 -13.90625 L 22.171875 -31.609375 C 22.128906 -31.679688 22.070312 -31.71875 22 -31.71875 C 21.925781 -31.71875 21.875 -31.679688 21.84375 -31.609375 L 14.703125 -13.90625 C 14.628906 -13.757812 14.679688 -13.6875 14.859375 -13.6875 Z M 29.140625 -13.6875 "/></g></g></g><g fill="#84746d" fill-opacity="1"><g transform="translate(1196.861578, 836.6539)"><g><path d="M 26.9375 -37.515625 C 27.4375 -37.515625 27.6875 -37.265625 27.6875 -36.765625 L 27.6875 -31.9375 C 27.6875 -31.6875 27.5625 -31.5625 27.3125 -31.5625 C 27.132812 -31.5625 27.007812 -31.648438 26.9375 -31.828125 L 26.453125 -33.0625 C 26.203125 -33.664062 25.8125 -34.164062 25.28125 -34.5625 C 24.738281 -34.914062 24.128906 -35.113281 23.453125 -35.15625 L 10.953125 -35.15625 C 10.453125 -35.15625 10.203125 -34.90625 10.203125 -34.40625 L 10.203125 -25.328125 C 10.203125 -24.828125 10.453125 -24.578125 10.953125 -24.578125 L 19.859375 -24.578125 C 20.578125 -24.578125 21.222656 -24.773438 21.796875 -25.171875 C 22.328125 -25.566406 22.71875 -26.085938 22.96875 -26.734375 L 23.453125 -27.96875 C 23.523438 -28.144531 23.648438 -28.234375 23.828125 -28.234375 C 24.078125 -28.234375 24.203125 -28.109375 24.203125 -27.859375 L 24.203125 -19 C 24.203125 -18.75 24.078125 -18.625 23.828125 -18.625 C 23.648438 -18.625 23.523438 -18.710938 23.453125 -18.890625 L 22.96875 -20.125 C 22.71875 -20.769531 22.328125 -21.289062 21.796875 -21.6875 C 21.222656 -22.082031 20.578125 -22.28125 19.859375 -22.28125 L 10.953125 -22.28125 C 10.453125 -22.28125 10.203125 -22.023438 10.203125 -21.515625 L 10.203125 -3.703125 C 10.203125 -3.160156 10.34375 -2.675781 10.625 -2.25 C 10.914062 -1.789062 11.3125 -1.46875 11.8125 -1.28125 L 13.6875 -0.59375 C 13.863281 -0.519531 13.953125 -0.394531 13.953125 -0.21875 C 13.953125 0.03125 13.828125 0.15625 13.578125 0.15625 L 2.890625 0.15625 C 2.785156 0.125 2.71875 0.0546875 2.6875 -0.046875 L 2.6875 -0.375 C 2.757812 -0.519531 2.828125 -0.609375 2.890625 -0.640625 L 4.5625 -1.28125 C 5.0625 -1.46875 5.457031 -1.789062 5.75 -2.25 C 6.03125 -2.675781 6.171875 -3.160156 6.171875 -3.703125 L 6.171875 -33.765625 C 6.171875 -34.296875 6.03125 -34.796875 5.75 -35.265625 C 5.457031 -35.691406 5.0625 -35.992188 4.5625 -36.171875 L 2.890625 -36.8125 C 2.710938 -36.882812 2.625 -37.007812 2.625 -37.1875 C 2.625 -37.4375 2.75 -37.5625 3 -37.5625 L 26.9375 -37.5625 Z M 26.9375 -37.515625 "/></g></g></g><g fill="#84746d" fill-opacity="1"><g transform="translate(1227.233187, 836.6539)"><g><path d="M 42.828125 -0.640625 C 43.003906 -0.566406 43.09375 -0.441406 43.09375 -0.265625 C 43.09375 -0.015625 42.96875 0.109375 42.71875 0.109375 L 31.828125 0.109375 C 31.578125 0.109375 31.453125 -0.015625 31.453125 -0.265625 C 31.453125 -0.441406 31.539062 -0.566406 31.71875 -0.640625 C 32.4375 -0.816406 32.957031 -1.25 33.28125 -1.9375 C 33.601562 -2.613281 33.617188 -3.3125 33.328125 -4.03125 L 30.640625 -10.6875 C 30.460938 -11.144531 30.125 -11.375 29.625 -11.375 L 14.4375 -11.375 C 13.9375 -11.375 13.597656 -11.144531 13.421875 -10.6875 L 10.6875 -3.921875 C 10.394531 -3.234375 10.425781 -2.570312 10.78125 -1.9375 C 11.101562 -1.289062 11.625 -0.878906 12.34375 -0.703125 C 12.519531 -0.628906 12.609375 -0.503906 12.609375 -0.328125 C 12.609375 -0.078125 12.484375 0.046875 12.234375 0.046875 L 3.171875 0.046875 C 2.921875 0.046875 2.796875 -0.078125 2.796875 -0.328125 C 2.796875 -0.503906 2.882812 -0.628906 3.0625 -0.703125 L 4.296875 -1.1875 C 4.617188 -1.289062 4.972656 -1.445312 5.359375 -1.65625 C 5.753906 -1.875 6.148438 -2.128906 6.546875 -2.421875 C 6.898438 -2.671875 7.238281 -2.957031 7.5625 -3.28125 C 7.882812 -3.59375 8.117188 -3.910156 8.265625 -4.234375 L 20.28125 -33.96875 C 20.5 -34.46875 20.519531 -34.953125 20.34375 -35.421875 C 20.125 -35.890625 19.765625 -36.210938 19.265625 -36.390625 L 18.25 -36.765625 C 18.070312 -36.835938 17.984375 -36.960938 17.984375 -37.140625 C 17.984375 -37.390625 18.109375 -37.515625 18.359375 -37.515625 L 23.609375 -37.515625 C 23.859375 -37.515625 24.039062 -37.40625 24.15625 -37.1875 L 24.953125 -35.203125 L 37.515625 -4.296875 C 37.660156 -3.972656 37.894531 -3.648438 38.21875 -3.328125 C 38.539062 -3.003906 38.894531 -2.703125 39.28125 -2.421875 C 39.644531 -2.128906 40.039062 -1.875 40.46875 -1.65625 C 40.863281 -1.445312 41.222656 -1.289062 41.546875 -1.1875 L 42.78125 -0.703125 Z M 29.140625 -13.6875 C 29.316406 -13.6875 29.375 -13.757812 29.3125 -13.90625 L 22.171875 -31.609375 C 22.128906 -31.679688 22.070312 -31.71875 22 -31.71875 C 21.925781 -31.71875 21.875 -31.679688 21.84375 -31.609375 L 14.703125 -13.90625 C 14.628906 -13.757812 14.679688 -13.6875 14.859375 -13.6875 Z M 29.140625 -13.6875 "/></g></g></g></svg>